<?xml version="1.0" encoding="utf-8"?>
<!-- Generator: Adobe Illustrator 14.0.0, SVG Export Plug-In . SVG Version: 6.00 Build 43363)  -->
<!DOCTYPE svg PUBLIC "-//W3C//DTD SVG 1.0//EN" "http://www.w3.org/TR/2001/REC-SVG-20010904/DTD/svg10.dtd">
<svg version="1.0" id="Capa_1" xmlns="http://www.w3.org/2000/svg" xmlns:xlink="http://www.w3.org/1999/xlink" x="0px" y="0px"
	 width="841.89px" height="595.28px" viewBox="0 0 841.89 595.28" enable-background="new 0 0 841.89 595.28" xml:space="preserve">
<g>
	<polygon fill="#62CEEA" points="362.812,231.145 334.409,231.145 334.409,210.25 334.409,207.194 334.409,147.283 310.203,147.283 
		310.203,204.883 310.203,207.92 310.203,254.394 362.812,254.394 	"/>
	<path fill="#62CEEA" d="M366.854,210.458v3.063v40.872h20.571c9.236-7.346,19.375-15.178,30.687-23.48
		c0.146-0.108,0.301-0.208,0.448-0.316h-27.57v-14.707v-3.063v-4.514h36.475v-23.38H390.99V171.01h36.475v-23.727h-60.61V210.458z"
		/>
	<path fill="#62CEEA" d="M601.245,147.283v29.583c8.226-0.667,16.319-1.192,24.213-1.597v-27.986H601.245z"/>
	<path fill="#62CEEA" d="M538.684,147.283v37.685c14.26-2.624,28.635-4.661,42.801-6.223l-20.517-31.462H538.684z"/>
	<path fill="#62CEEA" d="M257.349,256.963c9.483,0,18.017-1.721,25.362-5.093c6.559-3.079,13.55-8.179,20.757-15.208l1.682-1.628
		l-16.512-17.214l-1.714,1.705c-4.807,4.792-9.298,8.295-13.31,10.409c-4.738,2.423-10.108,3.657-15.957,3.657
		c-6.188,0-11.89-1.435-16.929-4.244c-10.17-5.656-15.293-14.506-15.733-26.91c-0.023-0.575-0.085-1.119-0.085-1.709
		c0-0.424,0.039-0.822,0.046-1.231c0.263-8.723,3.287-15.907,9.267-21.886c6.281-6.266,13.827-9.321,23.086-9.321
		c10.856,0,20.802,4.714,29.56,14.012l1.636,1.736l16.983-16.208l-1.458-1.705c-12.207-14.209-27.816-21.416-46.413-21.416
		c-10.286,0-20.023,2.539-28.92,7.539c-18.109,10.158-27.484,25.903-27.963,46.782c-0.007,0.544-0.039,1.081-0.039,1.632
		c0,0.452,0.046,0.872,0.054,1.312c0.278,15.899,5.579,29.116,15.856,39.271C227.156,251.678,240.859,256.963,257.349,256.963z"/>
	<path fill="#62CEEA" d="M471.639,147.283l-25.74,66.817c9.621-4.83,19.814-9.112,30.416-12.882l6.944-17.94l5.34,13.854
		c7.446-2.323,15.054-4.425,22.771-6.319l-16.744-43.53H471.639z"/>
	<path fill="#62CEEA" d="M259.309,269.524c-0.146,0-0.293,0.031-0.44,0.031v-0.031h-20.934h-24.229v54.606v3.109v4.313v8.65
		c8.773-0.162,16.821-0.563,24.229-1.228v-7.423h20.934v-0.015c0.146,0,0.293,0.015,0.44,0.015c12.538,0,23.303-7.445,28.187-18.141
		c0.494-1.072,0.934-2.16,1.297-3.294c0.979-3.018,1.527-6.22,1.527-9.568v-0.008C290.319,283.413,276.438,269.524,259.309,269.524z
		 M268.753,300.559c0,5.671-4.599,10.263-10.27,10.263c-0.054,0-0.093-0.008-0.146-0.008v0.008h-20.54v-20.548h20.54v0.022
		c0.054,0,0.092-0.022,0.146-0.022c5.671,0,10.27,4.606,10.27,10.277V300.559z"/>
	<path fill="#62CEEA" d="M319.115,274.439c-8.719,5.063-15.617,11.96-20.493,20.502c-2.624,4.591-4.521,9.46-5.741,14.545
		c-0.255,1.049-0.479,2.114-0.671,3.187c-0.603,3.372-0.926,6.829-0.926,10.378c0,1.003,0.085,1.968,0.131,2.955
		c9.197-4.174,17.731-9.298,26.42-15.447c0.208-0.532,0.378-1.088,0.609-1.612c0.502-1.127,1.064-2.23,1.697-3.287
		c1.165-1.937,2.523-3.766,4.136-5.494c5.101-5.509,11.289-8.564,18.835-9.298c3.665-3.032,7.454-6.204,11.451-9.537
		c3.997-3.341,8.24-6.891,12.754-10.625c-6.265-2.461-13.024-3.75-20.285-3.75C337.094,266.955,327.703,269.471,319.115,274.439z"/>
</g>
<g>
	<path fill="#71D54F" d="M427.465,230.597h-3.033c-1.458,0.996-2.894,2.014-4.305,3.056c-9.908,7.269-18.951,14.197-27.238,20.741
		h34.576V230.597z"/>
	<path fill="#71D54F" d="M601.245,180.242v27.731c-0.216,0.046-0.424,0.085-0.633,0.124l-17.067-26.181
		c-14.838,1.586-29.923,3.692-44.861,6.466v27.979v3.04v34.992h24.213v-37.361v-3.109v-21.119l12.701,19.467l1.852,2.832
		l25.648,39.29h22.36v-48.16v-3.11v-24.479C617.564,179.046,609.471,179.571,601.245,180.242z"/>
	<path fill="#71D54F" d="M463.969,233.298h38.573l8.017,21.096h25.247l-13.048-33.958l-1.149-2.979l-9.028-23.483
		c-7.716,1.89-15.324,3.985-22.77,6.304l3.61,9.364h-20.362l1.636-4.24c-10.71,3.931-20.979,8.376-30.617,13.422l-0.439,1.142
		l-13.257,34.429h25.231L463.969,233.298z"/>
	<polygon fill="#71D54F" points="518.306,305.559 518.306,302.495 518.306,269.524 494.101,269.524 494.101,300.396 494.101,303.46 
		494.101,376.631 546.7,376.631 546.7,353.391 518.306,353.391 	"/>
	<path fill="#71D54F" d="M213.707,376.631h24.229v-34.397c-7.431,0.687-15.486,1.103-24.229,1.288V376.631z"/>
	<path fill="#71D54F" d="M484.586,299.771c-2.615-5.841-6.242-11.266-10.972-16.165c-10.71-11.05-23.974-16.651-39.414-16.651
		c-9.931,0-19.328,2.516-27.908,7.484c-6.281,3.643-11.582,8.241-15.896,13.704c-1.234-1.551-2.531-3.071-3.943-4.537
		c-4.729-4.869-9.977-8.627-15.663-11.358c-4.984,4.113-9.676,8.033-14.051,11.69c-2.809,2.346-5.524,4.614-8.172,6.82
		c8.202,0.394,14.993,3.488,20.688,9.499c0.123,0.139,0.231,0.285,0.354,0.424c0.856,0.934,1.636,1.898,2.354,2.887
		c4.136,5.617,6.181,12.091,6.181,19.69c0,9.082-2.87,16.56-8.766,22.855c-6.042,6.442-13.325,9.575-22.245,9.575
		c-7.577,0-14.391-2.423-20.247-7.206c-7.616-6.188-11.312-14.391-11.312-25.093c0-2.716,0.247-5.271,0.74-7.693
		c-8.001,5.394-16.019,9.978-24.684,13.773c1.305,12.917,6.582,24.159,15.795,33.449c10.71,10.803,24.082,16.288,39.745,16.288
		c15.479,0,28.688-5.471,39.268-16.265c1.466-1.497,2.793-3.048,4.059-4.63c1.272,1.574,2.623,3.125,4.097,4.606
		c10.702,10.803,24.082,16.288,39.746,16.288c15.478,0,28.688-5.471,39.267-16.265c10.563-10.779,15.91-24.082,15.91-39.553
		c0-7.315-1.234-14.144-3.61-20.494C485.505,301.84,485.057,300.806,484.586,299.771z M456.546,346.114
		c-6.041,6.442-13.325,9.575-22.245,9.575c-7.577,0-14.391-2.423-20.247-7.206c-7.615-6.188-11.319-14.391-11.319-25.093
		c0-8.643,2.462-15.757,7.438-21.729c0.417-0.502,0.817-1.011,1.273-1.497c0.548-0.586,1.118-1.119,1.682-1.651
		c5.617-5.247,12.438-7.832,20.825-7.832c8.148,0,14.916,2.585,20.648,7.832c0.609,0.556,1.227,1.119,1.813,1.744
		c0.417,0.439,0.779,0.902,1.165,1.357c5.178,6.058,7.731,13.148,7.731,21.644C465.312,332.341,462.441,339.818,456.546,346.114z"/>
</g>
<g>
	<polygon fill="#62CEEA" points="215.589,405.104 212.919,405.104 212.919,422.681 220.219,422.681 220.219,420.149 
		215.589,420.149 	"/>
	<rect x="220.644" y="405.104" fill="#62CEEA" width="2.669" height="17.577"/>
	<polygon fill="#62CEEA" points="225.234,400.227 222.264,400.25 220.667,404.085 223.267,404.085 	"/>
	<polygon fill="#62CEEA" points="238.452,417.511 225.366,403.8 225.366,422.681 228.035,422.681 228.035,410.343 241.114,424.031 
		241.114,405.104 238.452,405.104 	"/>
	<path fill="#62CEEA" d="M252.649,422.58v-2.431h-6.836v-5.795h6.636v-2.522h-6.636v-4.198h6.836v-2.53h-9.498v17.577h9.452h0.046
		h2.871l2.021-4.761h6.644l1.983,4.761h2.932l-8.14-18.974L252.649,422.58z M260.914,410.088l2.207,5.301h-4.475L260.914,410.088z"
		/>
	<path fill="#62CEEA" d="M279.016,405.104h-3.558v17.577h3.511c2.724,0,4.823-0.37,6.891-2.215c1.883-1.674,2.878-3.942,2.878-6.551
		c0-2.739-1.019-5.046-2.924-6.689C283.753,405.466,281.601,405.104,279.016,405.104z M279.085,420.149h-0.973v-12.516h0.973
		c1.929,0,3.503,0.263,4.946,1.528c1.296,1.142,2.044,2.862,2.044,4.729c0,1.798-0.702,3.449-1.968,4.638
		C282.673,419.872,281.061,420.149,279.085,420.149z"/>
	<polygon fill="#62CEEA" points="289.88,422.681 299.37,422.681 299.37,420.149 292.542,420.149 292.542,414.354 299.17,414.354 
		299.17,411.832 292.542,411.832 292.542,407.634 299.37,407.634 299.37,405.104 289.88,405.104 	"/>
	<path fill="#62CEEA" d="M314.825,406.068c-1.28-0.888-2.801-0.965-4.383-0.965h-3.155v17.577h2.654v-7.346h0.965
		c1.296,0,2.947-0.139,4.235-1.204c1.096-0.902,1.752-2.36,1.752-3.904C316.894,408.521,316.122,406.971,314.825,406.068z
		 M309.941,407.634h0.301c2.585,0,3.989,0.409,3.989,2.539c0,1.821-1.064,2.631-3.434,2.631h-0.856V407.634z"/>
	<path fill="#62CEEA" d="M327.179,410.134c0-3.379-2.137-5.03-6.543-5.03h-2.824v17.577h2.662v-7.184l5.146,7.184h3.063
		l-5.409-7.616C325.667,414.586,327.179,412.711,327.179,410.134z M320.474,407.634h0.162c2.516,0,3.881,0.417,3.881,2.632
		c0,1.852-1.118,2.607-3.85,2.607h-0.193V407.634z"/>
	<path fill="#62CEEA" d="M337.511,404.818c-5.039,0-9.136,4.081-9.136,9.097c0,4.992,4.097,9.059,9.136,9.059
		c5.046,0,9.144-4.066,9.144-9.059C346.654,408.899,342.557,404.818,337.511,404.818z M337.511,420.443
		c-3.572,0-6.481-2.94-6.481-6.552c0-3.61,2.909-6.551,6.481-6.551s6.489,2.94,6.489,6.551
		C344,417.503,341.083,420.443,337.511,420.443z"/>
	<path fill="#62CEEA" d="M351.292,405.104h-3.55v17.577h3.503c2.724,0,4.83-0.37,6.898-2.215c1.883-1.674,2.87-3.942,2.87-6.551
		c0-2.731-1.011-5.038-2.924-6.689C356.029,405.466,353.884,405.104,351.292,405.104z M351.361,420.149h-0.965v-12.516h0.965
		c1.937,0,3.519,0.263,4.945,1.528c1.305,1.142,2.045,2.862,2.045,4.729c0,1.798-0.694,3.449-1.968,4.638
		C354.949,419.872,353.336,420.149,351.361,420.149z"/>
	<path fill="#62CEEA" d="M372.226,415.752c0,1.203,0.007,2.453-0.741,3.341c-1.396,1.682-4.869,1.566-6.049-0.093
		c-0.664-0.91-0.664-2.13-0.664-3.503v-10.394h-2.654v10.902c0,1.821,0.131,3.58,1.767,5.14c1.165,1.142,2.894,1.828,4.614,1.828
		c1.853,0,3.604-0.748,4.808-2.037c1.458-1.512,1.574-3.125,1.574-4.931v-10.902h-2.654V415.752z"/>
	<path fill="#62CEEA" d="M384.817,407.341c1.775,0,3.542,0.771,4.831,2.106l0.679,0.71l-0.154-3.611
		c-1.559-1.165-3.271-1.728-5.247-1.728c-5.038,0-9.144,4.097-9.144,9.143c0,4.97,4.105,9.013,9.144,9.013
		c1.844,0,3.704-0.617,5.401-2.045v-3.271l-0.671,0.672c-1.343,1.342-3.095,2.114-4.8,2.114c-3.473,0-6.412-3.002-6.412-6.552
		C378.444,410.343,381.369,407.341,384.817,407.341z"/>
	<polygon fill="#62CEEA" points="401.369,405.104 390.566,405.104 390.566,407.634 394.617,407.634 394.617,422.681 
		397.279,422.681 397.279,407.634 401.369,407.634 	"/>
	<path fill="#62CEEA" d="M410.127,404.818c-5.047,0-9.145,4.081-9.145,9.097c0,4.992,4.098,9.059,9.145,9.059
		c5.038,0,9.143-4.066,9.143-9.059C419.27,408.899,415.165,404.818,410.127,404.818z M410.127,420.443
		c-3.573,0-6.482-2.94-6.482-6.552c0-3.61,2.909-6.551,6.482-6.551c3.572,0,6.481,2.94,6.481,6.551
		C416.608,417.503,413.699,420.443,410.127,420.443z"/>
	<path fill="#62CEEA" d="M426.577,412.303l-1.127-0.494c-1.057-0.479-2.376-1.072-2.376-2.253c0-1.242,1.049-2.215,2.392-2.215
		c1.165,0,1.875,0.455,2.547,1.636l0.208,0.355l2.152-1.374l-0.177-0.331c-0.957-1.783-2.67-2.809-4.684-2.809
		c-2.909,0-5.093,2.006-5.093,4.668c0,2.67,1.913,3.766,3.889,4.66l1.096,0.479c1.497,0.687,2.785,1.273,2.785,2.939
		c0,1.59-1.373,2.879-3.056,2.879c-1.512,0-2.739-1.143-2.978-2.778l-0.063-0.447l-2.607,0.732l0.069,0.363
		c0.586,2.832,2.785,4.66,5.617,4.66c3.187,0,5.679-2.453,5.679-5.586C430.852,414.425,428.745,413.252,426.577,412.303z"/>
	<path fill="#62CEEA" d="M446.608,404.818c-5.039,0-9.144,4.081-9.144,9.097c0,4.992,4.104,9.059,9.144,9.059
		c5.046,0,9.15-4.066,9.15-9.059C455.759,408.899,451.654,404.818,446.608,404.818z M446.608,420.443
		c-3.565,0-6.475-2.94-6.475-6.552c0-3.61,2.909-6.551,6.475-6.551c3.58,0,6.489,2.94,6.489,6.551
		C453.098,417.503,450.188,420.443,446.608,420.443z"/>
	<path fill="#62CEEA" d="M466.191,410.134c0-3.379-2.13-5.03-6.535-5.03h-2.824v17.577h2.662v-7.184l5.146,7.184h3.056l-5.401-7.616
		C464.687,414.586,466.191,412.711,466.191,410.134z M459.494,407.634h0.162c2.515,0,3.881,0.417,3.881,2.632
		c0,1.852-1.119,2.607-3.858,2.607h-0.185V407.634z"/>
	<path fill="#62CEEA" d="M484.617,413.46h-7.77v2.516h4.969c-0.247,2.692-3.002,4.468-5.579,4.468c-1.52,0-3.232-0.772-4.475-2.022
		c-1.188-1.211-1.845-2.793-1.845-4.46c0-3.649,2.894-6.62,6.459-6.62c2.206,0,4.035,1.011,5.439,2.994l0.262,0.378l1.953-1.829
		l-0.217-0.285c-1.929-2.508-4.429-3.78-7.415-3.78c-5.046,0-9.144,4.089-9.144,9.12c0,4.899,4.136,9.035,9.028,9.035
		c2.492,0,4.923-1.104,6.512-2.947c1.582-1.837,1.875-3.797,1.829-6.188L484.617,413.46z"/>
	<path fill="#62CEEA" d="M484.077,422.681h2.917l2.029-4.761h6.636l1.982,4.761h2.933l-8.141-18.974L484.077,422.681z
		 M492.38,410.08l2.214,5.309h-4.482L492.38,410.08z M497.766,400.227l-2.971,0.023l-1.598,3.835h2.601L497.766,400.227z"/>
	<polygon fill="#62CEEA" points="513.915,417.511 500.821,403.8 500.821,422.681 503.483,422.681 503.483,410.343 516.569,424.031 
		516.569,405.104 513.915,405.104 	"/>
	<rect x="518.66" y="405.104" fill="#62CEEA" width="2.654" height="17.577"/>
	<path fill="#62CEEA" d="M531.338,407.341c1.774,0,3.534,0.771,4.83,2.106l0.68,0.71l-0.154-3.611
		c-1.56-1.165-3.272-1.728-5.247-1.728c-5.039,0-9.136,4.097-9.136,9.143c0,4.97,4.097,9.013,9.136,9.013
		c1.844,0,3.703-0.617,5.401-2.045v-3.271l-0.672,0.672c-1.343,1.342-3.086,2.114-4.792,2.114c-3.479,0-6.419-3.002-6.419-6.552
		C524.965,410.343,527.889,407.341,531.338,407.341z"/>
	<path fill="#62CEEA" d="M546.854,404.818c-5.046,0-9.144,4.081-9.144,9.097c0,4.992,4.098,9.059,9.144,9.059
		c5.047,0,9.144-4.066,9.144-9.059C555.998,408.899,551.901,404.818,546.854,404.818z M546.854,420.443
		c-3.572,0-6.481-2.94-6.481-6.552c0-3.61,2.909-6.551,6.481-6.551c3.573,0,6.481,2.94,6.481,6.551
		C553.336,417.503,550.428,420.443,546.854,420.443z"/>
	<path fill="#62CEEA" d="M563.306,412.303l-1.119-0.494c-1.064-0.471-2.384-1.072-2.384-2.253c0-1.242,1.049-2.215,2.384-2.215
		c1.157,0,1.875,0.455,2.554,1.636l0.209,0.355l2.145-1.374l-0.17-0.331c-0.964-1.783-2.677-2.809-4.69-2.809
		c-2.901,0-5.093,2.006-5.093,4.668c0,2.67,1.913,3.766,3.889,4.66l1.104,0.479c1.489,0.687,2.777,1.273,2.777,2.939
		c0,1.59-1.365,2.879-3.056,2.879c-1.512,0-2.739-1.143-2.963-2.778l-0.069-0.447l-2.615,0.732l0.077,0.363
		c0.578,2.832,2.777,4.66,5.617,4.66c3.179,0,5.671-2.453,5.671-5.586C567.572,414.425,565.466,413.252,563.306,412.303z"/>
	<path fill="#62CEEA" d="M585.729,410.234c0-1.697-0.771-3.256-2.061-4.151c-1.28-0.887-2.809-0.964-4.391-0.964h-3.155v17.577
		h2.662v-7.346h0.964c1.297,0,2.94-0.14,4.236-1.204C585.08,413.236,585.729,411.777,585.729,410.234z M578.784,407.649h0.293
		c2.585,0,3.989,0.409,3.989,2.547c0,1.813-1.058,2.623-3.426,2.623h-0.856V407.649z"/>
	<path fill="#62CEEA" d="M583.104,422.696h2.917l2.021-4.761h6.644l1.983,4.761h2.932l-8.147-18.974L583.104,422.696z
		 M591.407,410.096l2.215,5.309h-4.483L591.407,410.096z"/>
	<path fill="#62CEEA" d="M609.872,421.616l-4.646-6.544c2.393-0.471,3.904-2.346,3.904-4.931c0-3.379-2.137-5.022-6.543-5.022
		h-2.824v17.577h2.662v-7.184l5.146,7.184h1.821h1.234h1.683l2.029-4.761h6.636l1.982,4.761h2.933l-8.141-18.974L609.872,421.616z
		 M617.696,410.096l2.214,5.309h-4.482L617.696,410.096z M602.426,407.649h0.162c2.516,0,3.881,0.417,3.881,2.632
		c0,1.852-1.118,2.607-3.857,2.607h-0.186V407.649z"/>
	<path fill="#62CEEA" d="M219.826,443.437h-4.368v-15.046h-2.654v17.577h5.911h1.374h1.536l2.029-4.761h6.644l1.975,4.761h2.94
		l-8.148-18.974L219.826,443.437z M227.017,433.367l2.215,5.309h-4.491L227.017,433.367z"/>
	<path fill="#62CEEA" d="M247.789,435.598l-1.134-0.502c-1.049-0.479-2.369-1.072-2.369-2.253c0-1.242,1.05-2.207,2.384-2.207
		c1.166,0,1.875,0.455,2.554,1.62l0.208,0.363l2.153-1.382l-0.178-0.316c-0.964-1.79-2.67-2.816-4.691-2.816
		c-2.901,0-5.092,2.007-5.092,4.669c0,2.67,1.921,3.766,3.889,4.66l1.104,0.479c1.489,0.679,2.778,1.273,2.778,2.939
		c0,1.582-1.366,2.878-3.048,2.878c-1.52,0-2.739-1.149-2.979-2.777l-0.062-0.447l-2.608,0.732l0.069,0.363
		c0.579,2.824,2.786,4.652,5.618,4.652c3.187,0,5.671-2.446,5.671-5.578C252.056,437.711,249.949,436.539,247.789,435.598z"/>
	<path fill="#62CEEA" d="M251.569,445.968h2.909l2.029-4.761h6.644l1.975,4.761h2.94l-8.148-18.974L251.569,445.968z
		 M259.872,433.367l2.215,5.309h-4.483L259.872,433.367z"/>
	<polygon fill="#62CEEA" points="270.891,428.391 268.229,428.391 268.229,445.968 275.52,445.968 275.52,443.437 270.891,443.437 	
		"/>
	<path fill="#62CEEA" d="M285.976,439.039c0,1.203,0.007,2.453-0.733,3.341c-1.404,1.682-4.877,1.559-6.057-0.093
		c-0.664-0.903-0.656-2.13-0.656-3.511v-10.386h-2.662v10.902c0,1.821,0.131,3.58,1.767,5.132c1.165,1.149,2.894,1.828,4.614,1.828
		c1.853,0,3.604-0.74,4.8-2.029c1.466-1.513,1.582-3.125,1.582-4.931v-10.902h-2.654V439.039z"/>
	<path fill="#62CEEA" d="M294.054,428.391h-3.564v17.577h3.519c2.716,0,4.814-0.37,6.898-2.215c1.875-1.674,2.862-3.942,2.862-6.551
		c0-2.731-1.011-5.046-2.925-6.689C298.792,428.753,296.639,428.391,294.054,428.391z M294.115,443.437h-0.964v-12.516h0.964
		c1.938,0,3.511,0.263,4.946,1.528c1.304,1.142,2.053,2.862,2.053,4.729c0,1.798-0.702,3.449-1.976,4.63
		C297.703,443.167,296.099,443.437,294.115,443.437z"/>
	<polygon fill="#62CEEA" points="320.466,428.391 316.423,435.466 312.372,428.391 309.301,428.391 315.088,438.359 
		315.088,445.968 317.75,445.968 317.696,438.561 323.537,428.391 	"/>
	<path fill="#62CEEA" d="M337.75,436.454c0.811-0.779,1.234-1.845,1.234-3.125c0-3.188-2.13-4.938-6.003-4.938h-3.156v17.577h4.29
		c4.013,0,6.404-1.898,6.404-5.069C340.52,438.884,339.432,437.179,337.75,436.454z M332.804,435.782h-0.316v-4.861h0.34
		c2.415,0,3.495,0.348,3.495,2.408C336.322,435.396,335.134,435.782,332.804,435.782z M332.487,438.175h1.228
		c2.862,0,4.144,0.802,4.144,2.584c0,1.829-1.243,2.678-3.897,2.678h-1.474V438.175z"/>
	<polygon fill="#62CEEA" points="341.801,445.968 351.292,445.968 351.292,443.437 344.463,443.437 344.463,437.642 
		351.091,437.642 351.091,435.111 344.463,435.111 344.463,430.921 351.292,430.921 351.292,428.391 341.801,428.391 	"/>
	<polygon fill="#62CEEA" points="355.682,428.391 353.02,428.391 353.02,445.968 360.312,445.968 360.312,443.437 355.682,443.437 	
		"/>
	<polygon fill="#62CEEA" points="363.367,428.391 360.705,428.391 360.705,445.968 367.989,445.968 367.989,443.437 
		363.367,443.437 	"/>
	<polygon fill="#62CEEA" points="368.383,445.968 377.873,445.968 377.873,443.437 371.045,443.437 371.045,437.642 
		377.681,437.642 377.681,435.111 371.045,435.111 371.045,430.921 377.873,430.921 377.873,428.391 368.383,428.391 	"/>
	<path fill="#62CEEA" d="M391.029,444.101v-0.664h-8.611l9.167-15.046h-12.207v2.53h7.686l-9.151,15.047h12.299h0.818h2.099
		l2.029-4.761h6.636l1.983,4.761h2.932l-8.141-18.974L391.029,444.101z M398.514,433.367l2.215,5.309h-4.483L398.514,433.367z"/>
	<path fill="#62CEEA" d="M421.446,428.575h-3.558v17.577h3.511c2.716,0,4.823-0.37,6.898-2.214c1.875-1.675,2.87-3.943,2.87-6.551
		c0-2.731-1.011-5.047-2.924-6.69C426.184,428.938,424.031,428.575,421.446,428.575z M421.508,443.622h-0.957v-12.516h0.957
		c1.937,0,3.519,0.255,4.953,1.527c1.297,1.143,2.045,2.863,2.045,4.73c0,1.798-0.702,3.441-1.968,4.63
		C425.096,443.344,423.49,443.622,421.508,443.622z"/>
	<polygon fill="#62CEEA" points="432.311,446.152 441.801,446.152 441.801,443.622 434.973,443.622 434.973,437.827 
		441.601,437.827 441.601,435.296 434.973,435.296 434.973,431.106 441.801,431.106 441.801,428.575 432.311,428.575 	"/>
	<path fill="#62CEEA" d="M455.944,435.782l-1.127-0.501c-1.057-0.479-2.376-1.073-2.376-2.254c0-1.242,1.049-2.206,2.392-2.206
		c1.165,0,1.875,0.455,2.547,1.62l0.208,0.362l2.152-1.381l-0.177-0.316c-0.957-1.79-2.67-2.816-4.684-2.816
		c-2.909,0-5.093,2.006-5.093,4.668c0,2.67,1.913,3.758,3.889,4.661l1.096,0.479c1.489,0.679,2.785,1.272,2.785,2.939
		c0,1.582-1.373,2.87-3.055,2.87c-1.513,0-2.739-1.142-2.979-2.77l-0.063-0.448l-2.607,0.733l0.069,0.362
		c0.586,2.824,2.785,4.653,5.617,4.653c3.187,0,5.671-2.446,5.671-5.579C460.211,437.896,458.112,436.724,455.944,435.782z"/>
	<path fill="#62CEEA" d="M471.554,439.224c0.008,1.204,0.008,2.454-0.732,3.341c-1.397,1.683-4.861,1.559-6.05-0.092
		c-0.663-0.911-0.656-2.138-0.656-3.512v-10.386h-2.662v10.903c0,1.821,0.14,3.58,1.76,5.131c1.173,1.149,2.901,1.829,4.622,1.829
		c1.852,0,3.604-0.741,4.807-2.037c1.459-1.505,1.574-3.117,1.574-4.923v-10.903h-2.662V439.224z"/>
	<path fill="#62CEEA" d="M489.803,429.54c-1.281-0.888-2.801-0.965-4.383-0.965h-3.156v17.577h2.662v-7.346h0.965
		c1.288,0,2.939-0.139,4.236-1.203c1.088-0.91,1.743-2.369,1.743-3.912C491.87,431.994,491.099,430.436,489.803,429.54z
		 M484.926,431.106h0.293c2.585,0,3.989,0.409,3.989,2.546c0,1.813-1.057,2.624-3.434,2.624h-0.849V431.106z"/>
	<rect x="492.843" y="428.575" fill="#62CEEA" width="2.654" height="17.577"/>
	<path fill="#62CEEA" d="M503.676,435.782l-1.134-0.501c-1.05-0.479-2.369-1.073-2.369-2.254c0-1.242,1.05-2.206,2.384-2.206
		c1.166,0,1.875,0.455,2.547,1.62l0.216,0.362l2.153-1.381l-0.178-0.316c-0.965-1.79-2.678-2.816-4.691-2.816
		c-2.901,0-5.085,2.006-5.085,4.668c0,2.67,1.913,3.758,3.881,4.661l1.104,0.479c1.489,0.679,2.778,1.272,2.778,2.939
		c0,1.582-1.374,2.87-3.056,2.87c-1.513,0-2.731-1.142-2.971-2.77l-0.063-0.448l-2.615,0.733l0.077,0.362
		c0.579,2.824,2.785,4.653,5.617,4.653c3.179,0,5.671-2.446,5.671-5.579C507.942,437.896,505.836,436.724,503.676,435.782z"/>
	<path fill="#62CEEA" d="M517.295,430.821c1.774,0,3.541,0.764,4.838,2.106l0.679,0.702l-0.162-3.619
		c-1.559-1.157-3.271-1.721-5.239-1.721c-5.046,0-9.144,4.098-9.144,9.136c0,4.977,4.098,9.013,9.144,9.013
		c1.837,0,3.696-0.609,5.401-2.045v-3.264l-0.679,0.679c-1.343,1.335-3.087,2.099-4.792,2.099c-3.472,0-6.412-2.993-6.412-6.543
		S513.846,430.821,517.295,430.821z"/>
	<rect x="524.556" y="428.575" fill="#62CEEA" width="2.67" height="17.577"/>
	<polygon fill="#62CEEA" points="542.372,440.983 529.277,427.271 529.277,446.152 531.939,446.152 531.939,433.814 
		545.026,447.503 545.026,428.575 542.372,428.575 	"/>
	<path fill="#62CEEA" d="M553.66,427.179l-8.364,18.974h2.925l2.021-4.761h6.644l1.976,4.761h2.932L553.66,427.179z
		 M553.599,433.553l2.215,5.309h-4.483L553.599,433.553z"/>
</g>
</svg>
