<?xml version="1.0" encoding="utf-8"?>
<!-- Generator: Adobe Illustrator 14.0.0, SVG Export Plug-In . SVG Version: 6.00 Build 43363)  -->
<!DOCTYPE svg PUBLIC "-//W3C//DTD SVG 1.0//EN" "http://www.w3.org/TR/2001/REC-SVG-20010904/DTD/svg10.dtd">
<svg version="1.0" id="Capa_1" xmlns="http://www.w3.org/2000/svg" xmlns:xlink="http://www.w3.org/1999/xlink" x="0px" y="0px"
	 width="841.89px" height="595.28px" viewBox="0 0 841.89 595.28" enable-background="new 0 0 841.89 595.28" xml:space="preserve">
<g>
	<polygon fill="#5DB4E4" points="384.615,236.428 356.216,236.428 356.216,215.533 356.216,212.478 356.216,152.566 
		332.011,152.566 332.011,210.167 332.011,213.203 332.011,259.677 384.615,259.677 	"/>
	<path fill="#5DB4E4" d="M388.658,215.741v3.063v40.872h20.575c9.235-7.346,19.371-15.178,30.683-23.48
		c0.146-0.108,0.301-0.208,0.447-0.316h-27.565v-14.707v-3.063v-4.514h36.47v-23.38h-36.47v-13.924h36.47v-23.727h-60.609V215.741z"
		/>
	<path fill="#5DB4E4" d="M623.052,152.566v29.583c8.227-0.667,16.32-1.192,24.213-1.597v-27.986H623.052z"/>
	<path fill="#5DB4E4" d="M560.486,152.566v37.685c14.26-2.624,28.635-4.661,42.805-6.223l-20.517-31.462H560.486z"/>
	<path fill="#5DB4E4" d="M279.152,262.246c9.487,0,18.017-1.721,25.363-5.093c6.563-3.079,13.553-8.179,20.756-15.208l1.683-1.628
		l-16.513-17.214l-1.709,1.705c-4.808,4.792-9.298,8.295-13.311,10.409c-4.741,2.423-10.108,3.657-15.96,3.657
		c-6.188,0-11.886-1.435-16.925-4.244c-10.173-5.656-15.293-14.506-15.737-26.91c-0.019-0.575-0.085-1.119-0.085-1.709
		c0-0.425,0.039-0.822,0.05-1.231c0.262-8.723,3.283-15.906,9.267-21.887c6.277-6.265,13.823-9.321,23.083-9.321
		c10.856,0,20.803,4.715,29.563,14.012l1.637,1.736l16.979-16.208l-1.458-1.705c-12.203-14.209-27.816-21.416-46.408-21.416
		c-10.286,0-20.023,2.539-28.92,7.539c-18.109,10.158-27.488,25.902-27.963,46.782c-0.008,0.544-0.042,1.08-0.042,1.632
		c0,0.452,0.046,0.872,0.054,1.312c0.282,15.899,5.583,29.116,15.856,39.271C248.959,256.961,262.667,262.246,279.152,262.246z"/>
	<path fill="#5DB4E4" d="M493.442,152.566l-25.741,66.817c9.626-4.83,19.814-9.112,30.421-12.882l6.944-17.94l5.339,13.854
		c7.447-2.322,15.055-4.425,22.767-6.319l-16.74-43.53H493.442z"/>
	<path fill="#5DB4E4" d="M281.115,274.808c-0.15,0-0.293,0.031-0.439,0.031v-0.031h-20.938h-24.225v54.606v3.11v4.313v8.649
		c8.77-0.162,16.817-0.563,24.225-1.227v-7.423h20.938v-0.015c0.146,0,0.29,0.015,0.439,0.015c12.535,0,23.299-7.446,28.188-18.14
		c0.489-1.072,0.93-2.161,1.292-3.296c0.984-3.017,1.527-6.219,1.527-9.567v-0.008C312.122,288.697,298.241,274.808,281.115,274.808
		z M290.56,305.842c0,5.672-4.603,10.262-10.274,10.262c-0.05,0-0.092-0.007-0.143-0.007v0.007H259.6v-20.548h20.544v0.023
		c0.05,0,0.092-0.023,0.143-0.023c5.671,0,10.274,4.607,10.274,10.278V305.842z"/>
	<path fill="#5DB4E4" d="M340.923,279.723c-8.719,5.063-15.617,11.96-20.494,20.502c-2.623,4.591-4.521,9.46-5.74,14.545
		c-0.255,1.049-0.482,2.113-0.672,3.187c-0.605,3.372-0.926,6.829-0.926,10.378c0,1.004,0.085,1.968,0.127,2.955
		c9.202-4.174,17.732-9.298,26.425-15.447c0.204-0.532,0.378-1.088,0.609-1.613c0.501-1.126,1.061-2.229,1.697-3.287
		c1.161-1.936,2.519-3.765,4.132-5.493c5.101-5.51,11.292-8.565,18.835-9.298c3.665-3.033,7.457-6.203,11.45-9.537
		c3.997-3.341,8.244-6.891,12.755-10.625c-6.262-2.461-13.021-3.75-20.281-3.75C358.901,272.238,349.511,274.754,340.923,279.723z"
		/>
</g>
<g>
	<path fill="#71D54F" d="M449.268,235.88h-3.028c-1.462,0.996-2.897,2.014-4.31,3.056c-9.907,7.269-18.946,14.197-27.237,20.741
		h34.575V235.88z"/>
	<path fill="#71D54F" d="M623.052,185.525v27.731c-0.216,0.046-0.424,0.085-0.637,0.124l-17.063-26.18
		c-14.838,1.585-29.927,3.691-44.865,6.466v27.979v3.04v34.993h24.213v-37.361v-3.109v-21.119l12.705,19.468l1.853,2.832
		l25.647,39.291h22.36v-48.16v-3.11v-24.479C639.372,184.329,631.273,184.854,623.052,185.525z"/>
	<path fill="#71D54F" d="M485.772,238.581h38.576l8.018,21.096h25.246l-13.052-33.958l-1.146-2.978l-9.031-23.484
		c-7.713,1.891-15.321,3.986-22.767,6.304l3.607,9.364h-20.363l1.64-4.24c-10.709,3.931-20.979,8.375-30.621,13.422l-0.439,1.143
		l-13.256,34.429h25.231L485.772,238.581z"/>
	<polygon fill="#71D54F" points="540.112,310.842 540.112,307.778 540.112,274.808 515.903,274.808 515.903,305.68 515.903,308.743 
		515.903,381.914 568.508,381.914 568.508,358.674 540.112,358.674 	"/>
	<path fill="#71D54F" d="M235.514,381.914h24.225v-34.398c-7.427,0.688-15.482,1.104-24.225,1.289V381.914z"/>
	<path fill="#71D54F" d="M506.394,305.055c-2.62-5.841-6.246-11.266-10.973-16.165c-10.714-11.05-23.974-16.651-39.417-16.651
		c-9.931,0-19.325,2.516-27.909,7.484c-6.277,3.643-11.582,8.241-15.896,13.704c-1.23-1.552-2.53-3.071-3.942-4.537
		c-4.727-4.868-9.977-8.627-15.66-11.358c-4.988,4.113-9.676,8.033-14.054,11.689c-2.81,2.347-5.521,4.615-8.172,6.821
		c8.202,0.394,14.996,3.488,20.687,9.499c0.127,0.139,0.231,0.285,0.358,0.424c0.853,0.934,1.632,1.898,2.354,2.886
		c4.133,5.618,6.181,12.092,6.181,19.692c0,9.081-2.87,16.559-8.766,22.854c-6.045,6.442-13.325,9.575-22.245,9.575
		c-7.581,0-14.394-2.423-20.247-7.207c-7.615-6.188-11.314-14.39-11.314-25.092c0-2.717,0.25-5.271,0.74-7.693
		c-7.998,5.394-16.019,9.977-24.684,13.773c1.304,12.917,6.582,24.158,15.795,33.448c10.709,10.803,24.081,16.289,39.749,16.289
		c15.479,0,28.688-5.471,39.263-16.266c1.466-1.497,2.798-3.047,4.063-4.629c1.27,1.573,2.62,3.125,4.094,4.605
		c10.706,10.803,24.085,16.289,39.745,16.289c15.482,0,28.692-5.471,39.271-16.266c10.559-10.778,15.91-24.082,15.91-39.552
		c0-7.315-1.235-14.144-3.615-20.494C507.308,307.122,506.86,306.089,506.394,305.055z M478.354,351.397
		c-6.046,6.442-13.326,9.575-22.245,9.575c-7.581,0-14.391-2.423-20.247-7.207c-7.62-6.188-11.319-14.39-11.319-25.092
		c0-8.643,2.457-15.757,7.434-21.729c0.421-0.502,0.818-1.011,1.273-1.497c0.548-0.586,1.119-1.118,1.687-1.651
		c5.613-5.247,12.435-7.832,20.825-7.832c8.145,0,14.915,2.585,20.645,7.832c0.613,0.556,1.227,1.119,1.817,1.744
		c0.416,0.439,0.779,0.902,1.165,1.357c5.178,6.058,7.731,13.148,7.731,21.645C487.119,337.624,484.249,345.102,478.354,351.397z"/>
</g>
<g>
	<polygon fill="#5DB4E4" points="237.393,410.387 234.727,410.387 234.727,427.964 242.022,427.964 242.022,425.433 
		237.393,425.433 	"/>
	<rect x="242.451" y="410.387" fill="#5DB4E4" width="2.666" height="17.577"/>
	<polygon fill="#5DB4E4" points="247.038,405.51 244.071,405.533 242.474,409.367 245.074,409.367 	"/>
	<polygon fill="#5DB4E4" points="260.255,422.794 247.173,409.083 247.173,427.964 249.838,427.964 249.838,415.625 
		262.917,429.313 262.917,410.387 260.255,410.387 	"/>
	<path fill="#5DB4E4" d="M274.457,427.863v-2.431h-6.836v-5.794h6.632v-2.523h-6.632v-4.197h6.836v-2.531h-9.502v17.577h9.452h0.05
		h2.867l2.025-4.761h6.644l1.979,4.761h2.936l-8.141-18.975L274.457,427.863z M282.716,415.371l2.207,5.301h-4.475L282.716,415.371z
		"/>
	<path fill="#5DB4E4" d="M300.818,410.387h-3.557v17.577h3.511c2.724,0,4.822-0.371,6.894-2.215c1.88-1.675,2.875-3.942,2.875-6.551
		c0-2.739-1.015-5.047-2.925-6.69C305.556,410.749,303.407,410.387,300.818,410.387z M300.888,425.433h-0.968v-12.515h0.968
		c1.93,0,3.508,0.262,4.946,1.526c1.296,1.143,2.045,2.863,2.045,4.73c0,1.798-0.698,3.449-1.968,4.638
		C304.479,425.155,302.867,425.433,300.888,425.433z"/>
	<polygon fill="#5DB4E4" points="311.687,427.964 321.174,427.964 321.174,425.433 314.345,425.433 314.345,419.639 
		320.977,419.639 320.977,417.115 314.345,417.115 314.345,412.918 321.174,412.918 321.174,410.387 311.687,410.387 	"/>
	<path fill="#5DB4E4" d="M336.633,411.351c-1.285-0.888-2.806-0.964-4.387-0.964h-3.152v17.577h2.654v-7.347h0.965
		c1.293,0,2.943-0.138,4.236-1.203c1.096-0.903,1.747-2.361,1.747-3.904C338.696,413.805,337.926,412.254,336.633,411.351z
		 M331.748,412.918h0.298c2.584,0,3.988,0.408,3.988,2.538c0,1.821-1.061,2.631-3.429,2.631h-0.857V412.918z"/>
	<path fill="#5DB4E4" d="M348.982,415.417c0-3.379-2.138-5.03-6.539-5.03h-2.824v17.577h2.661v-7.184l5.146,7.184h3.06l-5.404-7.616
		C347.47,419.87,348.982,417.995,348.982,415.417z M342.28,412.918h0.163c2.515,0,3.877,0.416,3.877,2.631
		c0,1.852-1.119,2.607-3.851,2.607h-0.189V412.918z"/>
	<path fill="#5DB4E4" d="M359.313,410.101c-5.038,0-9.136,4.082-9.136,9.098c0,4.992,4.098,9.059,9.136,9.059
		c5.047,0,9.144-4.066,9.144-9.059C368.457,414.183,364.36,410.101,359.313,410.101z M359.313,425.727
		c-3.568,0-6.481-2.94-6.481-6.552s2.913-6.551,6.481-6.551c3.573,0,6.489,2.939,6.489,6.551S362.887,425.727,359.313,425.727z"/>
	<path fill="#5DB4E4" d="M373.099,410.387h-3.553v17.577h3.507c2.724,0,4.826-0.371,6.897-2.215c1.88-1.675,2.87-3.942,2.87-6.551
		c0-2.731-1.011-5.038-2.924-6.69C377.837,410.749,375.691,410.387,373.099,410.387z M373.164,425.433H372.2v-12.515h0.964
		c1.937,0,3.519,0.262,4.95,1.526c1.3,1.143,2.045,2.863,2.045,4.73c0,1.798-0.699,3.449-1.968,4.638
		C376.756,425.155,375.144,425.433,373.164,425.433z"/>
	<path fill="#5DB4E4" d="M394.028,421.034c0.004,1.204,0.008,2.454-0.74,3.342c-1.397,1.682-4.865,1.566-6.046-0.093
		c-0.667-0.911-0.663-2.13-0.663-3.503v-10.394h-2.654v10.902c0,1.821,0.131,3.58,1.763,5.139c1.165,1.142,2.894,1.829,4.614,1.829
		c1.852,0,3.604-0.749,4.807-2.037c1.463-1.513,1.578-3.125,1.578-4.931v-10.902h-2.658V421.034z"/>
	<path fill="#5DB4E4" d="M406.625,412.624c1.771,0,3.538,0.771,4.826,2.106l0.684,0.71l-0.158-3.611
		c-1.559-1.165-3.272-1.729-5.247-1.729c-5.039,0-9.141,4.098-9.141,9.144c0,4.97,4.102,9.013,9.141,9.013
		c1.844,0,3.707-0.617,5.405-2.045v-3.271l-0.676,0.671c-1.343,1.343-3.09,2.115-4.796,2.115c-3.476,0-6.411-3.002-6.411-6.552
		S403.172,412.624,406.625,412.624z"/>
	<polygon fill="#5DB4E4" points="423.176,410.387 412.373,410.387 412.373,412.918 416.424,412.918 416.424,427.964 
		419.082,427.964 419.082,412.918 423.176,412.918 	"/>
	<path fill="#5DB4E4" d="M431.934,410.101c-5.046,0-9.147,4.082-9.147,9.098c0,4.992,4.102,9.059,9.147,9.059
		c5.039,0,9.14-4.066,9.14-9.059C441.073,414.183,436.973,410.101,431.934,410.101z M431.934,425.727
		c-3.576,0-6.481-2.94-6.481-6.552s2.905-6.551,6.481-6.551c3.568,0,6.481,2.939,6.481,6.551S435.502,425.727,431.934,425.727z"/>
	<path fill="#5DB4E4" d="M448.384,417.585l-1.13-0.493c-1.058-0.479-2.373-1.072-2.373-2.253c0-1.242,1.05-2.215,2.389-2.215
		c1.165,0,1.875,0.455,2.546,1.636l0.209,0.354l2.156-1.373l-0.178-0.332c-0.961-1.782-2.673-2.809-4.688-2.809
		c-2.904,0-5.093,2.006-5.093,4.669c0,2.669,1.918,3.765,3.889,4.66l1.101,0.479c1.492,0.687,2.781,1.273,2.781,2.939
		c0,1.59-1.374,2.879-3.056,2.879c-1.513,0-2.735-1.143-2.975-2.778l-0.062-0.447l-2.612,0.732l0.073,0.363
		c0.583,2.831,2.785,4.66,5.618,4.66c3.182,0,5.675-2.454,5.675-5.586C452.655,419.707,450.549,418.534,448.384,417.585z"/>
	<path fill="#5DB4E4" d="M468.415,410.101c-5.039,0-9.144,4.082-9.144,9.098c0,4.992,4.104,9.059,9.144,9.059
		c5.047,0,9.147-4.066,9.147-9.059C477.563,414.183,473.462,410.101,468.415,410.101z M468.415,425.727
		c-3.569,0-6.478-2.94-6.478-6.552s2.908-6.551,6.478-6.551c3.576,0,6.485,2.939,6.485,6.551S471.991,425.727,468.415,425.727z"/>
	<path fill="#5DB4E4" d="M487.999,415.417c0-3.379-2.134-5.03-6.536-5.03h-2.824v17.577h2.662v-7.184l5.146,7.184h3.056
		l-5.405-7.616C486.493,419.87,487.999,417.995,487.999,415.417z M481.301,412.918h0.162c2.516,0,3.877,0.416,3.877,2.631
		c0,1.852-1.118,2.607-3.857,2.607h-0.182V412.918z"/>
	<path fill="#5DB4E4" d="M506.424,418.742h-7.77v2.517h4.966c-0.247,2.692-3.002,4.468-5.575,4.468
		c-1.521,0-3.233-0.772-4.479-2.022c-1.188-1.212-1.844-2.793-1.844-4.46c0-3.649,2.897-6.62,6.458-6.62
		c2.211,0,4.035,1.011,5.44,2.994l0.262,0.378l1.956-1.829l-0.22-0.285c-1.93-2.508-4.426-3.781-7.412-3.781
		c-5.045,0-9.146,4.09-9.146,9.121c0,4.899,4.136,9.035,9.031,9.035c2.488,0,4.923-1.104,6.509-2.947
		c1.586-1.837,1.879-3.796,1.833-6.188L506.424,418.742z"/>
	<path fill="#5DB4E4" d="M505.885,427.964h2.912l2.029-4.761h6.64l1.983,4.761h2.933l-8.145-18.975L505.885,427.964z
		 M514.187,415.363l2.215,5.309h-4.483L514.187,415.363z M519.569,405.51l-2.968,0.023l-1.597,3.834h2.6L519.569,405.51z"/>
	<polygon fill="#5DB4E4" points="535.718,422.794 522.628,409.083 522.628,427.964 525.29,427.964 525.29,415.625 538.376,429.313 
		538.376,410.387 535.718,410.387 	"/>
	<rect x="540.464" y="410.387" fill="#5DB4E4" width="2.654" height="17.577"/>
	<path fill="#5DB4E4" d="M553.145,412.624c1.771,0,3.535,0.771,4.83,2.106l0.68,0.71l-0.158-3.611
		c-1.555-1.165-3.268-1.729-5.243-1.729c-5.043,0-9.14,4.098-9.14,9.144c0,4.97,4.097,9.013,9.14,9.013
		c1.845,0,3.704-0.617,5.401-2.045v-3.271l-0.671,0.671c-1.343,1.343-3.091,2.115-4.796,2.115c-3.48,0-6.416-3.002-6.416-6.552
		S549.692,412.624,553.145,412.624z"/>
	<path fill="#5DB4E4" d="M568.658,410.101c-5.043,0-9.144,4.082-9.144,9.098c0,4.992,4.101,9.059,9.144,9.059
		c5.046,0,9.144-4.066,9.144-9.059C577.802,414.183,573.704,410.101,568.658,410.101z M568.658,425.727
		c-3.573,0-6.481-2.94-6.481-6.552s2.908-6.551,6.481-6.551c3.572,0,6.485,2.939,6.485,6.551S572.23,425.727,568.658,425.727z"/>
	<path fill="#5DB4E4" d="M585.109,417.585l-1.116-0.493c-1.063-0.471-2.388-1.072-2.388-2.253c0-1.242,1.05-2.215,2.388-2.215
		c1.158,0,1.875,0.455,2.555,1.636l0.208,0.354l2.146-1.373l-0.174-0.332c-0.965-1.782-2.674-2.809-4.688-2.809
		c-2.901,0-5.093,2.006-5.093,4.669c0,2.669,1.914,3.765,3.886,4.66l1.103,0.479c1.49,0.687,2.778,1.273,2.778,2.939
		c0,1.59-1.366,2.879-3.052,2.879c-1.517,0-2.739-1.143-2.967-2.778l-0.065-0.447l-2.616,0.732l0.073,0.363
		c0.583,2.831,2.782,4.66,5.617,4.66c3.184,0,5.672-2.454,5.672-5.586C589.376,419.707,587.269,418.534,585.109,417.585z"/>
	<path fill="#5DB4E4" d="M607.531,415.518c0-1.697-0.768-3.256-2.061-4.151c-1.28-0.887-2.808-0.965-4.386-0.965h-3.156v17.578
		h2.662v-7.346h0.961c1.297,0,2.943-0.14,4.235-1.204C606.883,418.52,607.531,417.061,607.531,415.518z M600.591,412.933h0.293
		c2.581,0,3.989,0.409,3.989,2.546c0,1.813-1.062,2.624-3.43,2.624h-0.853V412.933z"/>
	<path fill="#5DB4E4" d="M604.907,427.979h2.918l2.025-4.761h6.639l1.983,4.761h2.936l-8.147-18.975L604.907,427.979z
		 M613.214,415.379l2.211,5.309h-4.482L613.214,415.379z"/>
	<path fill="#5DB4E4" d="M631.679,426.898l-4.646-6.543c2.393-0.471,3.901-2.346,3.901-4.931c0-3.38-2.138-5.023-6.54-5.023h-2.823
		v17.578h2.661v-7.184l5.147,7.184h1.82h1.234h1.679l2.029-4.761h6.64l1.979,4.761h2.936l-8.145-18.975L631.679,426.898z
		 M639.503,415.379l2.215,5.309h-4.483L639.503,415.379z M624.232,412.933h0.162c2.516,0,3.878,0.417,3.878,2.631
		c0,1.852-1.119,2.608-3.858,2.608h-0.182V412.933z"/>
	<path fill="#5DB4E4" d="M241.632,448.72h-4.367v-15.046h-2.658v17.576h5.911h1.374h1.54l2.029-4.761h6.64l1.979,4.761h2.936
		l-8.144-18.973L241.632,448.72z M248.82,438.65l2.215,5.309h-4.487L248.82,438.65z"/>
	<path fill="#5DB4E4" d="M269.591,440.88l-1.13-0.501c-1.053-0.479-2.369-1.073-2.369-2.254c0-1.242,1.045-2.206,2.384-2.206
		c1.165,0,1.875,0.455,2.55,1.62l0.212,0.363l2.149-1.382l-0.174-0.316c-0.964-1.79-2.674-2.816-4.691-2.816
		c-2.905,0-5.093,2.007-5.093,4.669c0,2.67,1.917,3.766,3.889,4.66l1.103,0.479c1.49,0.679,2.778,1.272,2.778,2.939
		c0,1.582-1.369,2.878-3.052,2.878c-1.516,0-2.739-1.149-2.974-2.777l-0.062-0.447l-2.612,0.732l0.073,0.363
		c0.579,2.823,2.782,4.652,5.614,4.652c3.187,0,5.675-2.445,5.675-5.579C273.863,442.994,271.756,441.822,269.591,440.88z"/>
	<path fill="#5DB4E4" d="M273.373,451.25h2.913l2.029-4.761h6.64l1.979,4.761h2.936l-8.144-18.973L273.373,451.25z M281.675,438.65
		l2.215,5.309h-4.483L281.675,438.65z"/>
	<polygon fill="#5DB4E4" points="292.697,433.674 290.035,433.674 290.035,451.25 297.327,451.25 297.327,448.72 292.697,448.72 	
		"/>
	<path fill="#5DB4E4" d="M307.778,444.321c0.004,1.204,0.008,2.454-0.733,3.342c-1.4,1.682-4.872,1.559-6.053-0.093
		c-0.663-0.902-0.66-2.13-0.66-3.511v-10.386h-2.662v10.902c0,1.821,0.132,3.58,1.768,5.131c1.165,1.15,2.894,1.829,4.614,1.829
		c1.855,0,3.607-0.74,4.799-2.029c1.47-1.512,1.586-3.125,1.586-4.931v-10.902h-2.658V444.321z"/>
	<path fill="#5DB4E4" d="M315.857,433.674h-3.562v17.576h3.515c2.716,0,4.819-0.369,6.898-2.214
		c1.875-1.674,2.866-3.943,2.866-6.551c0-2.731-1.011-5.046-2.924-6.689C320.595,434.036,318.446,433.674,315.857,433.674z
		 M315.919,448.72h-0.961v-12.516h0.961c1.937,0,3.515,0.263,4.95,1.528c1.3,1.142,2.048,2.862,2.048,4.729
		c0,1.798-0.702,3.449-1.971,4.63C319.507,448.449,317.901,448.72,315.919,448.72z"/>
	<polygon fill="#5DB4E4" points="342.27,433.674 338.226,440.749 334.179,433.674 331.108,433.674 336.895,443.643 336.895,451.25 
		339.553,451.25 339.503,443.844 345.341,433.674 	"/>
	<path fill="#5DB4E4" d="M359.557,441.737c0.811-0.779,1.231-1.845,1.231-3.126c0-3.187-2.13-4.938-6.004-4.938h-3.155v17.576h4.29
		c4.017,0,6.408-1.897,6.408-5.068C362.327,444.167,361.239,442.462,359.557,441.737z M354.607,441.065h-0.316v-4.861h0.34
		c2.418,0,3.498,0.348,3.498,2.407C358.129,440.68,356.941,441.065,354.607,441.065z M354.291,443.457h1.23
		c2.862,0,4.144,0.803,4.144,2.585c0,1.829-1.242,2.678-3.9,2.678h-1.474V443.457z"/>
	<polygon fill="#5DB4E4" points="363.607,451.25 373.095,451.25 373.095,448.72 366.266,448.72 366.266,442.925 372.897,442.925 
		372.897,440.395 366.266,440.395 366.266,436.204 373.095,436.204 373.095,433.674 363.607,433.674 	"/>
	<polygon fill="#5DB4E4" points="377.489,433.674 374.827,433.674 374.827,451.25 382.114,451.25 382.114,448.72 377.489,448.72 	
		"/>
	<polygon fill="#5DB4E4" points="385.17,433.674 382.509,433.674 382.509,451.25 389.796,451.25 389.796,448.72 385.17,448.72 	"/>
	<polygon fill="#5DB4E4" points="390.189,451.25 399.681,451.25 399.681,448.72 392.849,448.72 392.849,442.925 399.484,442.925 
		399.484,440.395 392.849,440.395 392.849,436.204 399.681,436.204 399.681,433.674 390.189,433.674 	"/>
	<path fill="#5DB4E4" d="M412.836,449.384v-0.664h-8.614l9.167-15.046h-12.203v2.53h7.681l-9.15,15.046h12.299h0.821h2.1
		l2.024-4.761h6.641l1.979,4.761h2.936l-8.14-18.973L412.836,449.384z M420.317,438.65l2.215,5.309h-4.483L420.317,438.65z"/>
	<path fill="#5DB4E4" d="M443.249,433.859h-3.558v17.576h3.516c2.716,0,4.818-0.37,6.897-2.214c1.875-1.675,2.867-3.943,2.867-6.552
		c0-2.731-1.011-5.046-2.925-6.689C447.991,434.222,445.838,433.859,443.249,433.859z M443.315,448.905h-0.961V436.39h0.961
		c1.937,0,3.514,0.255,4.949,1.527c1.3,1.143,2.049,2.862,2.049,4.73c0,1.798-0.702,3.44-1.972,4.63
		C446.902,448.627,445.294,448.905,443.315,448.905z"/>
	<polygon fill="#5DB4E4" points="454.117,451.436 463.608,451.436 463.608,448.905 456.775,448.905 456.775,443.11 463.407,443.11 
		463.407,440.579 456.775,440.579 456.775,436.39 463.608,436.39 463.608,433.859 454.117,433.859 	"/>
	<path fill="#5DB4E4" d="M477.751,441.065l-1.13-0.502c-1.058-0.479-2.373-1.072-2.373-2.253c0-1.242,1.05-2.207,2.389-2.207
		c1.165,0,1.875,0.456,2.546,1.621l0.209,0.362l2.156-1.381l-0.178-0.316c-0.961-1.79-2.673-2.816-4.688-2.816
		c-2.909,0-5.093,2.006-5.093,4.668c0,2.67,1.918,3.758,3.89,4.661l1.1,0.479c1.488,0.679,2.781,1.272,2.781,2.939
		c0,1.581-1.374,2.87-3.056,2.87c-1.513,0-2.735-1.143-2.975-2.771l-0.062-0.447l-2.612,0.733l0.073,0.362
		c0.583,2.824,2.786,4.653,5.618,4.653c3.183,0,5.667-2.446,5.667-5.579C482.015,443.18,479.916,442.007,477.751,441.065z"/>
	<path fill="#5DB4E4" d="M493.36,444.507c0.005,1.203,0.009,2.454-0.732,3.341c-1.4,1.683-4.865,1.559-6.05-0.093
		c-0.663-0.91-0.659-2.137-0.659-3.51v-10.386h-2.658v10.901c0,1.822,0.136,3.581,1.759,5.132c1.173,1.149,2.897,1.829,4.623,1.829
		c1.848,0,3.603-0.741,4.807-2.037c1.454-1.505,1.574-3.117,1.574-4.924v-10.901h-2.663V444.507z"/>
	<path fill="#5DB4E4" d="M511.609,434.823c-1.28-0.888-2.805-0.964-4.383-0.964h-3.155v17.576h2.657v-7.346h0.965
		c1.293,0,2.94-0.139,4.236-1.204c1.092-0.91,1.744-2.368,1.744-3.911C513.674,437.276,512.906,435.718,511.609,434.823z
		 M506.729,436.39h0.294c2.589,0,3.993,0.408,3.993,2.547c0,1.813-1.062,2.622-3.435,2.622h-0.853V436.39z"/>
	<rect x="514.646" y="433.859" fill="#5DB4E4" width="2.654" height="17.576"/>
	<path fill="#5DB4E4" d="M525.479,441.065l-1.13-0.502c-1.053-0.479-2.373-1.072-2.373-2.253c0-1.242,1.05-2.207,2.389-2.207
		c1.165,0,1.875,0.456,2.547,1.621l0.211,0.362l2.153-1.381l-0.178-0.316c-0.96-1.79-2.673-2.816-4.688-2.816
		c-2.904,0-5.089,2.006-5.089,4.668c0,2.67,1.914,3.758,3.886,4.661l1.1,0.479c1.488,0.679,2.781,1.272,2.781,2.939
		c0,1.581-1.373,2.87-3.056,2.87c-1.513,0-2.735-1.143-2.975-2.771l-0.062-0.447l-2.612,0.733l0.073,0.362
		c0.583,2.824,2.786,4.653,5.618,4.653c3.183,0,5.671-2.446,5.671-5.579C529.746,443.18,527.644,442.007,525.479,441.065z"/>
	<path fill="#5DB4E4" d="M539.102,436.104c1.771,0,3.538,0.765,4.834,2.106l0.68,0.703l-0.158-3.619
		c-1.559-1.157-3.272-1.721-5.243-1.721c-5.043,0-9.144,4.098-9.144,9.136c0,4.977,4.101,9.013,9.144,9.013
		c1.84,0,3.699-0.609,5.401-2.045v-3.264l-0.676,0.679c-1.343,1.335-3.086,2.099-4.795,2.099c-3.473,0-6.412-2.994-6.412-6.543
		C532.732,439.098,535.648,436.104,539.102,436.104z"/>
	<rect x="546.362" y="433.859" fill="#5DB4E4" width="2.666" height="17.576"/>
	<polygon fill="#5DB4E4" points="564.175,446.267 551.085,432.555 551.085,451.436 553.747,451.436 553.747,439.098 
		566.834,452.786 566.834,433.859 564.175,433.859 	"/>
	<path fill="#5DB4E4" d="M575.464,432.462l-8.364,18.974h2.925l2.024-4.761h6.641l1.979,4.761h2.933L575.464,432.462z
		 M575.406,438.836l2.214,5.309h-4.482L575.406,438.836z"/>
</g>
</svg>
