<?xml version="1.0" encoding="utf-8"?>
<!-- Generator: Adobe Illustrator 14.0.0, SVG Export Plug-In . SVG Version: 6.00 Build 43363)  -->
<!DOCTYPE svg PUBLIC "-//W3C//DTD SVG 1.0//EN" "http://www.w3.org/TR/2001/REC-SVG-20010904/DTD/svg10.dtd">
<svg version="1.0" id="Capa_1" xmlns="http://www.w3.org/2000/svg" xmlns:xlink="http://www.w3.org/1999/xlink" x="0px" y="0px"
	 width="841.89px" height="595.28px" viewBox="0 0 841.89 595.28" enable-background="new 0 0 841.89 595.28" xml:space="preserve">
<g>
	<g>
		<path fill="#B1B1B1" d="M681.544,340.198H160.859c-12.646,0-22.932-10.289-22.932-22.938v-64.512
			c0-12.647,10.286-22.938,22.932-22.938h520.685c12.648,0,22.938,10.291,22.938,22.938v64.512
			C704.481,329.909,694.192,340.198,681.544,340.198L681.544,340.198z M160.859,231.13c-11.917,0-21.613,9.698-21.613,21.619v64.512
			c0,11.922,9.696,21.619,21.613,21.619h520.685c11.919,0,21.618-9.697,21.618-21.619v-64.512c0-11.92-9.699-21.619-21.618-21.619
			H160.859L160.859,231.13z"/>
		<path fill="#B1B1B1" d="M681.544,340.386H160.859c-12.748,0-23.119-10.374-23.119-23.125v-64.512
			c0-12.75,10.371-23.125,23.119-23.125h520.685c12.751,0,23.125,10.374,23.125,23.125v64.512
			C704.669,330.012,694.295,340.386,681.544,340.386L681.544,340.386z M160.859,229.998c-12.542,0-22.746,10.206-22.746,22.75
			v64.512c0,12.546,10.204,22.749,22.746,22.749h520.685c12.546,0,22.749-10.203,22.749-22.749v-64.512
			c0-12.544-10.203-22.75-22.749-22.75H160.859L160.859,229.998z M681.544,339.067H160.859c-12.021,0-21.8-9.784-21.8-21.807
			v-64.512c0-12.024,9.779-21.805,21.8-21.805h520.685c12.022,0,21.806,9.781,21.806,21.805v64.512
			C703.35,329.283,693.566,339.067,681.544,339.067L681.544,339.067z M160.859,231.317c-11.814,0-21.426,9.614-21.426,21.432v64.512
			c0,11.816,9.612,21.43,21.426,21.43h520.685c11.816,0,21.43-9.613,21.43-21.43v-64.512c0-11.818-9.613-21.432-21.43-21.432
			H160.859L160.859,231.317z"/>
	</g>
</g>
<g>
	<path fill="#C5C5C5" d="M453.822,290.665v30.099h16.172v-30.099h13.98v-0.015c0.098,0.002,0.194,0.015,0.297,0.015
		c8.367,0,15.558-4.974,18.818-12.118c-18.862,2.996-35.402,6.353-49.268,9.233V290.665z"/>
	<path fill="#C5C5C5" d="M223.787,297.481c-3.212,3.199-6.208,5.542-8.89,6.951c-3.164,1.619-6.75,2.441-10.654,2.441
		c-4.135,0-7.938-0.951-11.304-2.831c-6.793-3.778-10.211-9.684-10.508-17.968c-5.304-0.162-10.701-0.265-16.188-0.307
		c0.188,10.611,3.727,19.441,10.59,26.223c7.041,6.959,16.193,10.489,27.204,10.489c6.332,0,12.028-1.145,16.93-3.401
		c4.384-2.051,9.052-5.463,13.862-10.152l1.123-1.09l-11.029-11.491L223.787,297.481z"/>
	<path fill="#C5C5C5" d="M255.497,291.288c-5.356-0.533-10.73-1.056-16.168-1.556v31.031h35.125v-15.519h-18.957V291.288z"/>
	<path fill="#C5C5C5" d="M293.272,295.057c-5.355-0.508-10.729-1.039-16.119-1.584v27.291h40.471v-15.89h-24.352V295.057z"/>
	<path fill="#C5C5C5" d="M358.7,298.692c-10.225,0-20.282-0.353-30.277-0.915l-8.849,22.986h16.845l5.58-14.084h25.758l5.354,14.084
		h16.857l-8.715-22.669C373.636,298.488,366.114,298.692,358.7,298.692z"/>
	<path fill="#C5C5C5" d="M391.89,320.764h16.166v-24.944c-5.464,0.654-10.838,1.162-16.166,1.58V320.764z"/>
	<path fill="#C5C5C5" d="M417.775,294.532l17.125,26.232h14.932v-32.152c-4.07,0.844-7.854,1.633-11.332,2.332
		C431.459,292.357,424.559,293.542,417.775,294.532z"/>
	<path fill="#C5C5C5" d="M616.657,270.669c3.457,4.047,5.165,8.782,5.165,14.455c0,6.064-1.914,11.059-5.854,15.261
		c-4.039,4.307-8.897,6.393-14.854,6.393c-5.063,0-9.611-1.617-13.52-4.811c-5.087-4.133-7.559-9.609-7.559-16.753
		c0-5.771,1.64-10.523,4.968-14.512c-8.751,0.25-17.271,0.678-25.515,1.271c2.762,3.753,4.128,8.073,4.128,13.151
		c0,6.064-1.917,11.059-5.853,15.261c-4.038,4.307-8.898,6.393-14.852,6.393c-5.068,0-9.615-1.617-13.522-4.811
		c-5.085-4.133-7.559-9.609-7.559-16.753c0-3.591,0.649-6.78,1.925-9.645c-6.043,0.778-11.87,1.615-17.52,2.486
		c-0.405,2.254-0.621,4.563-0.621,6.93c0,10.446,3.627,19.408,10.775,26.621c7.154,7.213,16.085,10.874,26.542,10.874
		c10.337,0,19.157-3.651,26.219-10.86c0.979-0.995,1.871-2.03,2.714-3.092c0.848,1.057,1.748,2.086,2.732,3.078
		c7.148,7.213,16.082,10.874,26.539,10.874c10.335,0,19.158-3.651,26.222-10.86c7.051-7.195,10.626-16.078,10.626-26.405
		c0-4.885-0.826-9.446-2.416-13.687C629.177,271.133,622.86,270.842,616.657,270.669z"/>
	<path fill="#C5C5C5" d="M657.207,305.245v-31.94c-5.451-0.56-10.838-1.018-16.167-1.402v48.861h35.13v-15.519H657.207z"/>
</g>
<g>
	<path fill="#B1B1B1" d="M484.271,249.247c-0.103,0-0.199,0.015-0.297,0.015v-0.015h-13.98h-16.172v36.459
		c14.097-2.926,30.937-6.332,50.131-9.354c0.657-2.014,1.021-4.16,1.021-6.391v-0.008
		C504.974,258.518,495.704,249.247,484.271,249.247z M490.575,269.963c0,3.787-3.07,6.857-6.859,6.857
		c-0.031,0-0.063-0.01-0.099-0.01v0.01h-13.715v-13.717h13.715v0.01c0.036,0,0.067-0.01,0.099-0.01c3.789,0,6.859,3.07,6.859,6.857
		V269.963z"/>
	<path fill="#B1B1B1" d="M239.329,287.708c5.481,0.498,10.855,1.015,16.168,1.541v-40.001h-16.168V287.708z"/>
	<path fill="#B1B1B1" d="M277.154,291.43c5.389,0.545,10.763,1.074,16.119,1.582v-3.014h24.352v-15.611h-24.352v-9.298h24.352
		v-15.842h-40.471V291.43z"/>
	<path fill="#B1B1B1" d="M347.121,249.247l-17.932,46.547c16.762,0.92,33.726,1.188,51.3,0.307l-18.017-46.854H347.121z
		 M348.068,290.884l6.816-17.603l6.783,17.603H348.068z"/>
	<path fill="#B1B1B1" d="M433.664,289.773c1.479-0.281,2.939-0.523,4.434-0.822c3.548-0.713,7.403-1.518,11.557-2.38
		c0.057-0.013,0.121-0.026,0.178-0.036v-37.289h-16.168V289.773z"/>
	<path fill="#B1B1B1" d="M391.89,249.247v46.127c5.317-0.42,10.711-0.974,16.166-1.633v-14.099l8.485,12.999
		c5.479-0.783,11.054-1.729,16.701-2.79l-26.473-40.604H391.89z"/>
	<path fill="#B1B1B1" d="M204.22,247.528c-6.871,0-13.373,1.695-19.313,5.034c-12.092,6.783-18.354,17.296-18.668,31.238
		c5.487,0.043,10.874,0.15,16.172,0.309c0.175-5.821,2.189-10.616,6.186-14.611c4.191-4.184,9.23-6.224,15.413-6.224
		c7.249,0,13.89,3.147,19.74,9.358l1.092,1.157l11.337-10.82l-0.969-1.139C227.057,252.34,216.634,247.528,204.22,247.528z"/>
	<path fill="#B1B1B1" d="M601.045,247.528c-6.633,0-12.903,1.682-18.635,5c-4.189,2.429-7.733,5.5-10.613,9.148
		c-0.819-1.036-1.69-2.048-2.636-3.03c-7.153-7.375-16.011-11.119-26.319-11.119c-6.634,0-12.903,1.682-18.638,5
		c-5.825,3.377-10.429,7.98-13.685,13.685c-1.752,3.067-3.022,6.319-3.836,9.714c5.865-0.899,11.924-1.762,18.205-2.558
		c0.772-1.291,1.683-2.515,2.757-3.664c3.944-4.263,8.859-6.337,15.031-6.337c6.023,0,10.927,2.092,15.003,6.399
		c0.086,0.09,0.154,0.188,0.239,0.28c9.359-0.692,19.051-1.2,29.059-1.447c3.746-3.504,8.304-5.232,13.909-5.232
		c5.438,0,9.955,1.724,13.781,5.228c6.566,0.157,13.243,0.435,20.024,0.845c-1.753-3.905-4.168-7.522-7.327-10.794
		C620.212,251.271,611.357,247.528,601.045,247.528z"/>
	<path fill="#B1B1B1" d="M641.04,249.247v20.614c5.329,0.384,10.716,0.842,16.167,1.398v-22.012H641.04z"/>
</g>
<g>
	<polygon fill="#B1B1B1" points="166.271,354.075 164.499,354.075 164.499,365.772 169.353,365.772 169.353,364.089 
		166.271,364.089 	"/>
	<rect x="169.641" y="354.075" fill="#B1B1B1" width="1.772" height="11.697"/>
	<polygon fill="#B1B1B1" points="172.691,350.83 170.718,350.847 169.654,353.397 171.385,353.397 	"/>
	<polygon fill="#B1B1B1" points="181.49,362.331 172.778,353.208 172.778,365.772 174.551,365.772 174.551,357.561 183.263,366.67 
		183.263,354.075 181.49,354.075 	"/>
	<path fill="#B1B1B1" d="M190.935,365.706v-1.617h-4.544v-3.856h4.414v-1.683h-4.414v-2.793h4.544v-1.682h-6.316v11.697h6.288h0.028
		h1.911l1.351-3.17h4.42l1.316,3.17h1.953l-5.417-12.627L190.935,365.706z M196.432,357.389l1.474,3.531h-2.98L196.432,357.389z"/>
	<path fill="#B1B1B1" d="M208.48,354.075h-2.365v11.697h2.337c1.811,0,3.209-0.246,4.588-1.473c1.252-1.118,1.911-2.622,1.911-4.361
		c0-1.82-0.672-3.359-1.944-4.451C211.636,354.314,210.207,354.075,208.48,354.075z M208.527,364.089h-0.641v-8.332h0.641
		c1.285,0,2.336,0.176,3.292,1.019c0.865,0.759,1.362,1.906,1.362,3.147c0,1.197-0.466,2.293-1.311,3.084
		C210.917,363.903,209.846,364.089,208.527,364.089z"/>
	<polygon fill="#B1B1B1" points="215.714,365.772 222.031,365.772 222.031,364.089 217.484,364.089 217.484,360.232 
		221.896,360.232 221.896,358.55 217.484,358.55 217.484,355.757 222.031,355.757 222.031,354.075 215.714,354.075 	"/>
	<path fill="#B1B1B1" d="M232.317,354.717c-0.853-0.593-1.868-0.642-2.919-0.642h-2.099v11.697h1.77v-4.889h0.642
		c0.86,0,1.958-0.093,2.818-0.801c0.729-0.605,1.162-1.577,1.162-2.604C233.69,356.347,233.177,355.314,232.317,354.717z
		 M229.068,355.757h0.196c1.721,0,2.655,0.271,2.655,1.693c0,1.211-0.706,1.748-2.285,1.748h-0.566V355.757z"/>
	<path fill="#B1B1B1" d="M240.535,357.421c0-2.251-1.422-3.346-4.351-3.346h-1.878v11.697h1.77v-4.781l3.426,4.781h2.035
		l-3.598-5.071C239.53,360.385,240.535,359.138,240.535,357.421z M236.076,355.757h0.108c1.675,0,2.582,0.279,2.582,1.753
		c0,1.23-0.745,1.735-2.566,1.735h-0.124V355.757z"/>
	<path fill="#B1B1B1" d="M247.413,353.882c-3.354,0-6.082,2.718-6.082,6.057c0,3.322,2.728,6.025,6.082,6.025
		c3.356,0,6.084-2.703,6.084-6.025C253.498,356.6,250.77,353.882,247.413,353.882z M247.413,364.279
		c-2.378,0-4.315-1.953-4.315-4.356c0-2.402,1.938-4.355,4.315-4.355c2.377,0,4.315,1.953,4.315,4.355
		C251.728,362.326,249.791,364.279,247.413,364.279z"/>
	<path fill="#B1B1B1" d="M256.586,354.075h-2.367v11.697h2.337c1.811,0,3.209-0.246,4.59-1.473c1.25-1.118,1.909-2.625,1.909-4.361
		c0-1.815-0.672-3.357-1.944-4.451C259.74,354.314,258.31,354.075,256.586,354.075z M256.63,364.089h-0.642v-8.332h0.642
		c1.288,0,2.338,0.176,3.292,1.019c0.865,0.759,1.362,1.906,1.362,3.147c0,1.197-0.467,2.293-1.311,3.084
		C259.019,363.903,257.947,364.089,256.63,364.089z"/>
	<path fill="#B1B1B1" d="M270.513,361.159c0.002,0.801,0.005,1.631-0.49,2.223c-0.932,1.121-3.238,1.042-4.026-0.061
		c-0.443-0.604-0.441-1.42-0.441-2.331v-6.915h-1.767v7.258c0,1.208,0.09,2.38,1.172,3.415c0.778,0.763,1.927,1.216,3.074,1.216
		c1.231,0,2.398-0.494,3.199-1.355c0.971-1.004,1.049-2.078,1.049-3.275v-7.258h-1.77V361.159z"/>
	<path fill="#B1B1B1" d="M278.896,355.567c1.18,0,2.354,0.51,3.215,1.4l0.453,0.467l-0.105-2.404
		c-1.035-0.771-2.177-1.148-3.49-1.148c-3.354,0-6.083,2.73-6.083,6.085c0,3.308,2.729,5.997,6.083,5.997
		c1.226,0,2.465-0.407,3.596-1.36v-2.177l-0.448,0.451c-0.894,0.891-2.056,1.401-3.192,1.401c-2.313,0-4.268-1.993-4.268-4.356
		C274.655,357.561,276.597,355.567,278.896,355.567z"/>
	<polygon fill="#B1B1B1" points="289.913,354.075 282.724,354.075 282.724,355.757 285.418,355.757 285.418,365.772 
		287.188,365.772 287.188,355.757 289.913,355.757 	"/>
	<path fill="#B1B1B1" d="M295.738,353.882c-3.357,0-6.084,2.718-6.084,6.057c0,3.322,2.728,6.025,6.084,6.025
		s6.084-2.703,6.084-6.025C301.822,356.6,299.095,353.882,295.738,353.882z M295.738,364.279c-2.377,0-4.313-1.953-4.313-4.356
		c0-2.402,1.935-4.355,4.313-4.355s4.315,1.953,4.315,4.355C300.053,362.326,298.115,364.279,295.738,364.279z"/>
	<path fill="#B1B1B1" d="M306.689,358.869l-0.752-0.335c-0.703-0.316-1.579-0.711-1.579-1.498c0-0.824,0.698-1.469,1.589-1.469
		c0.773,0,1.247,0.303,1.695,1.082l0.139,0.239l1.432-0.919l-0.116-0.215c-0.641-1.188-1.78-1.873-3.123-1.873
		c-1.932,0-3.387,1.338-3.387,3.109c0,1.775,1.275,2.504,2.586,3.1l0.734,0.318c0.992,0.455,1.85,0.846,1.85,1.959
		c0,1.056-0.912,1.911-2.032,1.911c-1.007,0-1.822-0.758-1.979-1.845l-0.042-0.299l-1.738,0.49l0.049,0.239
		c0.386,1.883,1.853,3.099,3.738,3.099c2.118,0,3.774-1.63,3.774-3.715C309.527,360.275,308.126,359.498,306.689,358.869z"/>
	<path fill="#B1B1B1" d="M320.02,353.882c-3.356,0-6.084,2.718-6.084,6.057c0,3.322,2.729,6.025,6.084,6.025
		c3.357,0,6.085-2.703,6.085-6.025C326.105,356.6,323.376,353.882,320.02,353.882z M320.02,364.279
		c-2.377,0-4.312-1.953-4.312-4.356c0-2.402,1.934-4.355,4.312-4.355c2.378,0,4.315,1.953,4.315,4.355
		C324.335,362.326,322.398,364.279,320.02,364.279z"/>
	<path fill="#B1B1B1" d="M333.052,357.421c0-2.251-1.422-3.346-4.351-3.346h-1.877v11.697h1.77v-4.781l3.426,4.781h2.035
		l-3.598-5.071C332.048,360.385,333.052,359.138,333.052,357.421z M328.593,355.757h0.108c1.675,0,2.582,0.279,2.582,1.753
		c0,1.23-0.745,1.735-2.566,1.735h-0.124V355.757z"/>
	<path fill="#B1B1B1" d="M345.314,359.632h-5.172v1.68h3.305c-0.165,1.788-1.996,2.968-3.709,2.968c-1.013,0-2.154-0.516-2.98-1.343
		c-0.791-0.806-1.229-1.859-1.229-2.97c0-2.427,1.93-4.399,4.299-4.399c1.468,0,2.684,0.669,3.619,1.99l0.175,0.248l1.301-1.214
		l-0.146-0.19c-1.283-1.669-2.945-2.52-4.933-2.52c-3.357,0-6.085,2.726-6.085,6.072c0,3.259,2.751,6.01,6.011,6.01
		c1.656,0,3.276-0.731,4.333-1.958c1.054-1.222,1.25-2.53,1.219-4.116L345.314,359.632z"/>
	<path fill="#B1B1B1" d="M344.954,365.772h1.94l1.35-3.17h4.418l1.319,3.17h1.953l-5.42-12.627L344.954,365.772z M350.48,357.386
		l1.473,3.534h-2.983L350.48,357.386z M354.061,350.83l-1.973,0.017l-1.064,2.551h1.731L354.061,350.83z"/>
	<polygon fill="#B1B1B1" points="364.808,362.331 356.098,353.208 356.098,365.772 357.868,365.772 357.868,357.561 366.578,366.67 
		366.578,354.075 364.808,354.075 	"/>
	<rect x="367.966" y="354.075" fill="#B1B1B1" width="1.767" height="11.697"/>
	<path fill="#B1B1B1" d="M376.405,355.567c1.18,0,2.354,0.51,3.215,1.4l0.453,0.467l-0.105-2.404
		c-1.036-0.771-2.177-1.148-3.491-1.148c-3.354,0-6.082,2.73-6.082,6.085c0,3.308,2.728,5.997,6.082,5.997
		c1.227,0,2.465-0.407,3.596-1.36v-2.177l-0.448,0.451c-0.895,0.891-2.056,1.401-3.192,1.401c-2.313,0-4.269-1.993-4.269-4.356
		C372.165,357.561,374.107,355.567,376.405,355.567z"/>
	<path fill="#B1B1B1" d="M386.73,353.882c-3.356,0-6.085,2.718-6.085,6.057c0,3.322,2.729,6.025,6.085,6.025
		s6.085-2.703,6.085-6.025C392.815,356.6,390.087,353.882,386.73,353.882z M386.73,364.279c-2.378,0-4.313-1.953-4.313-4.356
		c0-2.402,1.935-4.355,4.313-4.355s4.314,1.953,4.314,4.355C391.045,362.326,389.108,364.279,386.73,364.279z"/>
	<path fill="#B1B1B1" d="M397.679,358.869l-0.744-0.329c-0.708-0.319-1.587-0.717-1.587-1.504c0-0.824,0.699-1.469,1.59-1.469
		c0.77,0,1.247,0.303,1.697,1.082l0.139,0.239l1.43-0.919l-0.116-0.215c-0.641-1.188-1.78-1.873-3.12-1.873
		c-1.932,0-3.39,1.338-3.39,3.109c0,1.775,1.275,2.504,2.586,3.1l0.734,0.318c0.992,0.455,1.85,0.846,1.85,1.959
		c0,1.056-0.912,1.911-2.033,1.911c-1.007,0-1.821-0.758-1.975-1.845l-0.042-0.299l-1.742,0.49l0.049,0.239
		c0.386,1.883,1.853,3.099,3.738,3.099c2.118,0,3.774-1.63,3.774-3.715C400.518,360.275,399.116,359.498,397.679,358.869z"/>
	<path fill="#B1B1B1" d="M411.881,357.479c0-1.132-0.513-2.164-1.373-2.762c-0.853-0.593-1.868-0.642-2.919-0.642h-2.099v11.697
		h1.77v-4.889h0.641c0.861,0,1.958-0.093,2.818-0.801C411.448,359.478,411.881,358.506,411.881,357.479z M407.259,355.757h0.196
		c1.721,0,2.656,0.271,2.656,1.693c0,1.211-0.706,1.748-2.285,1.748h-0.566V355.757z"/>
	<path fill="#B1B1B1" d="M410.134,365.772h1.939l1.35-3.17h4.418l1.319,3.17h1.953l-5.42-12.627L410.134,365.772z M415.66,357.386
		l1.474,3.534h-2.983L415.66,357.386z"/>
	<path fill="#B1B1B1" d="M427.947,365.054l-3.091-4.353c1.593-0.316,2.597-1.563,2.597-3.28c0-2.251-1.422-3.346-4.351-3.346h-1.878
		v11.697h1.77v-4.781l3.426,4.781h1.211h0.824h1.116l1.349-3.17h4.418l1.319,3.17h1.953l-5.421-12.627L427.947,365.054z
		 M433.157,357.386l1.473,3.534h-2.983L433.157,357.386z M422.994,355.757h0.108c1.675,0,2.581,0.279,2.581,1.753
		c0,1.23-0.744,1.735-2.568,1.735h-0.121V355.757z"/>
	<path fill="#B1B1B1" d="M447.514,364.089h-2.906v-10.014h-1.77v11.697h3.934h0.917h1.022l1.35-3.17h4.418l1.319,3.17h1.953
		l-5.421-12.627L447.514,364.089z M452.297,357.386l1.474,3.534h-2.983L452.297,357.386z"/>
	<path fill="#B1B1B1" d="M466.123,358.869l-0.752-0.335c-0.703-0.316-1.58-0.711-1.58-1.498c0-0.824,0.698-1.469,1.59-1.469
		c0.772,0,1.248,0.303,1.695,1.082l0.14,0.239l1.433-0.919l-0.116-0.215c-0.642-1.188-1.78-1.873-3.122-1.873
		c-1.933,0-3.389,1.338-3.389,3.109c0,1.775,1.275,2.504,2.586,3.1l0.734,0.318c0.992,0.455,1.851,0.846,1.851,1.959
		c0,1.056-0.913,1.911-2.032,1.911c-1.008,0-1.822-0.758-1.979-1.845l-0.04-0.299l-1.74,0.49l0.05,0.239
		c0.387,1.883,1.852,3.099,3.738,3.099c2.117,0,3.773-1.63,3.773-3.715C468.962,360.275,467.561,359.498,466.123,358.869z"/>
	<path fill="#B1B1B1" d="M468.638,365.772h1.938l1.351-3.17h4.418l1.319,3.17h1.953l-5.421-12.627L468.638,365.772z
		 M474.162,357.386l1.475,3.534h-2.983L474.162,357.386z"/>
	<polygon fill="#B1B1B1" points="481.497,354.075 479.728,354.075 479.728,365.772 484.578,365.772 484.578,364.089 
		481.497,364.089 	"/>
	<path fill="#B1B1B1" d="M491.533,361.159c0.003,0.801,0.006,1.631-0.489,2.223c-0.93,1.121-3.238,1.042-4.026-0.061
		c-0.439-0.604-0.438-1.412-0.438-2.331v-6.915h-1.773v7.258c0,1.209,0.092,2.38,1.176,3.415c0.777,0.763,1.926,1.216,3.073,1.216
		c1.233,0,2.401-0.494,3.194-1.355c0.977-0.998,1.053-2.075,1.053-3.275v-7.258h-1.77V361.159z"/>
	<path fill="#B1B1B1" d="M496.91,354.075h-2.367v11.697h2.336c1.811,0,3.209-0.246,4.591-1.473c1.249-1.118,1.909-2.625,1.909-4.361
		c0-1.815-0.672-3.357-1.945-4.451C500.063,354.314,498.634,354.075,496.91,354.075z M496.954,364.089h-0.642v-8.332h0.642
		c1.288,0,2.339,0.176,3.292,1.019c0.865,0.759,1.363,1.906,1.363,3.147c0,1.197-0.467,2.293-1.312,3.084
		C499.342,363.903,498.271,364.089,496.954,364.089z"/>
	<polygon fill="#B1B1B1" points="514.489,354.075 511.797,358.784 509.105,354.075 507.06,354.075 510.911,360.709 510.911,365.772 
		512.681,365.772 512.646,360.841 516.532,354.075 	"/>
	<path fill="#B1B1B1" d="M525.994,359.44c0.538-0.52,0.819-1.228,0.819-2.08c0-2.117-1.419-3.285-3.996-3.285h-2.099v11.697h2.854
		c2.672,0,4.264-1.262,4.264-3.373C527.836,361.054,527.114,359.925,525.994,359.44z M522.699,358.993h-0.211v-3.236h0.227
		c1.61,0,2.329,0.232,2.329,1.604C525.044,358.74,524.252,358.993,522.699,358.993z M522.488,360.588h0.818
		c1.906,0,2.76,0.53,2.76,1.72c0,1.214-0.827,1.781-2.597,1.781h-0.981V360.588z"/>
	<polygon fill="#B1B1B1" points="528.688,365.772 535.005,365.772 535.005,364.089 530.458,364.089 530.458,360.232 
		534.871,360.232 534.871,358.55 530.458,358.55 530.458,355.757 535.005,355.757 535.005,354.075 528.688,354.075 	"/>
	<polygon fill="#B1B1B1" points="537.927,354.075 536.157,354.075 536.157,365.772 541.008,365.772 541.008,364.089 
		537.927,364.089 	"/>
	<polygon fill="#B1B1B1" points="543.037,354.075 541.268,354.075 541.268,365.772 546.118,365.772 546.118,364.089 
		543.037,364.089 	"/>
	<polygon fill="#B1B1B1" points="546.379,365.772 552.695,365.772 552.695,364.089 548.148,364.089 548.148,360.232 
		552.563,360.232 552.563,358.55 548.148,358.55 548.148,355.757 552.695,355.757 552.695,354.075 546.379,354.075 	"/>
	<path fill="#B1B1B1" d="M561.451,364.526v-0.438h-5.734l6.104-10.014h-8.123v1.682h5.111l-6.09,10.016h8.184h0.549h1.396
		l1.348-3.17h4.418l1.318,3.17h1.953l-5.418-12.627L561.451,364.526z M566.431,357.389l1.472,3.531h-2.98L566.431,357.389z"/>
	<path fill="#B1B1B1" d="M578.479,354.075h-2.367v11.697h2.338c1.81,0,3.209-0.246,4.59-1.473c1.25-1.118,1.908-2.625,1.908-4.361
		c0-1.815-0.672-3.357-1.945-4.451C581.633,354.314,580.203,354.075,578.479,354.075z M578.523,364.089h-0.643v-8.332h0.643
		c1.287,0,2.338,0.176,3.291,1.019c0.866,0.759,1.363,1.906,1.363,3.147c0,1.197-0.466,2.293-1.311,3.084
		C580.911,363.903,579.84,364.089,578.523,364.089z"/>
	<polygon fill="#B1B1B1" points="585.711,365.772 592.027,365.772 592.027,364.089 587.48,364.089 587.48,360.232 591.896,360.232 
		591.896,358.55 587.48,358.55 587.48,355.757 592.027,355.757 592.027,354.075 585.711,354.075 	"/>
	<path fill="#B1B1B1" d="M601.439,358.869l-0.752-0.335c-0.703-0.316-1.578-0.711-1.578-1.498c0-0.824,0.697-1.469,1.588-1.469
		c0.773,0,1.248,0.303,1.695,1.082l0.14,0.239l1.433-0.919l-0.116-0.215c-0.642-1.188-1.78-1.873-3.122-1.873
		c-1.933,0-3.389,1.338-3.389,3.109c0,1.775,1.276,2.504,2.588,3.1l0.734,0.318c0.99,0.455,1.849,0.846,1.849,1.959
		c0,1.056-0.911,1.911-2.032,1.911c-1.007,0-1.822-0.758-1.979-1.845l-0.041-0.299l-1.738,0.49l0.048,0.239
		c0.387,1.883,1.853,3.099,3.738,3.099c2.117,0,3.773-1.63,3.773-3.715C604.278,360.275,602.877,359.498,601.439,358.869z"/>
	<path fill="#B1B1B1" d="M611.829,361.159c0.003,0.801,0.005,1.631-0.489,2.223c-0.933,1.121-3.238,1.042-4.026-0.061
		c-0.442-0.604-0.44-1.42-0.44-2.331v-6.915h-1.768v7.258c0,1.208,0.091,2.38,1.173,3.415c0.777,0.763,1.927,1.216,3.073,1.216
		c1.231,0,2.398-0.494,3.199-1.355c0.971-1.004,1.048-2.078,1.048-3.275v-7.258h-1.77V361.159z"/>
	<path fill="#B1B1B1" d="M623.974,354.717c-0.853-0.593-1.868-0.642-2.919-0.642h-2.1v11.697h1.77v-4.889h0.641
		c0.861,0,1.959-0.093,2.819-0.801c0.729-0.605,1.161-1.577,1.161-2.604C625.346,356.347,624.833,355.314,623.974,354.717z
		 M620.725,355.757h0.195c1.722,0,2.656,0.271,2.656,1.693c0,1.211-0.705,1.748-2.285,1.748h-0.566V355.757z"/>
	<rect x="625.993" y="354.075" fill="#B1B1B1" width="1.767" height="11.697"/>
	<path fill="#B1B1B1" d="M633.203,358.869l-0.753-0.335c-0.703-0.316-1.578-0.711-1.578-1.498c0-0.824,0.698-1.469,1.589-1.469
		c0.773,0,1.247,0.303,1.695,1.082l0.139,0.239l1.433-0.919l-0.116-0.215c-0.642-1.188-1.779-1.873-3.122-1.873
		c-1.933,0-3.387,1.338-3.387,3.109c0,1.775,1.274,2.504,2.586,3.1l0.734,0.318c0.991,0.455,1.849,0.846,1.849,1.959
		c0,1.056-0.911,1.911-2.032,1.911c-1.007,0-1.82-0.758-1.978-1.845l-0.042-0.299l-1.738,0.49l0.048,0.239
		c0.387,1.883,1.854,3.099,3.738,3.099c2.117,0,3.773-1.63,3.773-3.715C636.041,360.275,634.641,359.498,633.203,358.869z"/>
	<path fill="#B1B1B1" d="M642.268,355.567c1.18,0,2.355,0.51,3.215,1.4l0.455,0.467l-0.107-2.404
		c-1.035-0.771-2.176-1.148-3.489-1.148c-3.354,0-6.082,2.73-6.082,6.085c0,3.308,2.728,5.997,6.082,5.997
		c1.227,0,2.465-0.407,3.597-1.36v-2.177l-0.449,0.451c-0.894,0.891-2.055,1.401-3.191,1.401c-2.313,0-4.269-1.993-4.269-4.356
		C638.028,357.561,639.971,355.567,642.268,355.567z"/>
	<rect x="647.102" y="354.075" fill="#B1B1B1" width="1.771" height="11.697"/>
	<polygon fill="#B1B1B1" points="658.954,362.331 650.244,353.208 650.244,365.772 652.014,365.772 652.014,357.561 660.724,366.67 
		660.724,354.075 658.954,354.075 	"/>
	<path fill="#B1B1B1" d="M666.466,353.146l-5.565,12.627h1.945l1.348-3.17h4.418l1.319,3.17h1.952L666.466,353.146z M666.43,357.389
		l1.471,3.531h-2.98L666.43,357.389z"/>
</g>
</svg>
